<svg width="280" height="111" viewBox="0 0 280 111" fill="none" xmlns="http://www.w3.org/2000/svg">
<path d="M-412.305 110.479C-376.734 96.6655 -340.335 93.9531 -303.109 102.342C-265.884 110.731 -229.485 108.019 -193.914 94.2048C-158.342 80.391 -121.944 77.6785 -84.7176 86.0675C-47.4917 94.4565 -11.0931 91.7441 24.4783 77.9302C60.0496 64.1164 96.4483 61.404 133.674 69.7929C170.9 78.1819 207.299 75.4695 242.87 61.6557C278.441 47.8418 314.84 45.1294 352.066 53.5184C389.292 61.9073 425.691 59.1949 461.262 45.3811C496.833 31.5672 533.232 28.8548 570.458 37.2438C607.684 45.6328 644.082 42.9203 679.654 29.1065C715.225 15.2927 751.624 12.5802 788.85 20.9692C826.076 29.3582 862.474 26.6458 898.046 12.8319C933.617 -0.981907 970.016 -3.69434 1007.24 4.69464C1044.47 13.0836 1080.87 10.3712 1116.44 -3.44264C1152.01 -17.2565 1188.41 -19.9689 1225.63 -11.5799C1262.86 -3.19095 1299.26 -5.90338 1334.83 -19.7172C1370.4 -33.5311 1406.8 -36.2435 1444.03 -27.8545C1481.25 -19.4655 1517.65 -22.178 1553.22 -35.9918C1588.79 -49.8056 1625.19 -52.5181 1662.42 -44.1291C1699.64 -35.7401 1736.04 -38.4525 1771.61 -52.2664" stroke="#F2F7FF" stroke-opacity="0.1"/>
</svg>
